<mxfile host="65bd71144e" pages="5">
    <diagram name="OPA-demo" id="jlp4yzeYZmBKeEDdXUJW">
        <mxGraphModel dx="798" dy="387" grid="1" gridSize="10" guides="1" tooltips="1" connect="1" arrows="1" fold="1" page="1" pageScale="1" pageWidth="827" pageHeight="1169" math="0" shadow="0">
            <root>
                <mxCell id="0"/>
                <mxCell id="1" parent="0"/>
                <mxCell id="SodQSrbPSN-j6QDCCie8-29" value="" style="group" parent="1" vertex="1" connectable="0">
                    <mxGeometry x="220" y="100" width="530" height="60" as="geometry"/>
                </mxCell>
                <mxCell id="SodQSrbPSN-j6QDCCie8-24" value="" style="edgeStyle=orthogonalEdgeStyle;rounded=0;orthogonalLoop=1;jettySize=auto;html=1;" parent="SodQSrbPSN-j6QDCCie8-29" source="SodQSrbPSN-j6QDCCie8-6" edge="1">
                    <mxGeometry relative="1" as="geometry">
                        <mxPoint x="410" y="30" as="targetPoint"/>
                    </mxGeometry>
                </mxCell>
                <mxCell id="SodQSrbPSN-j6QDCCie8-28" value="" style="edgeStyle=orthogonalEdgeStyle;rounded=0;orthogonalLoop=1;jettySize=auto;html=1;" parent="SodQSrbPSN-j6QDCCie8-29" source="SodQSrbPSN-j6QDCCie8-6" target="SodQSrbPSN-j6QDCCie8-27" edge="1">
                    <mxGeometry relative="1" as="geometry"/>
                </mxCell>
                <mxCell id="SodQSrbPSN-j6QDCCie8-6" value="Create environment provider" style="whiteSpace=wrap;html=1;rounded=1;" parent="SodQSrbPSN-j6QDCCie8-29" vertex="1">
                    <mxGeometry x="210" width="120" height="60" as="geometry"/>
                </mxCell>
                <mxCell id="SodQSrbPSN-j6QDCCie8-22" value="" style="edgeStyle=orthogonalEdgeStyle;rounded=0;orthogonalLoop=1;jettySize=auto;html=1;" parent="SodQSrbPSN-j6QDCCie8-29" source="SodQSrbPSN-j6QDCCie8-18" target="SodQSrbPSN-j6QDCCie8-6" edge="1">
                    <mxGeometry relative="1" as="geometry"/>
                </mxCell>
                <mxCell id="SodQSrbPSN-j6QDCCie8-18" value="Create environment provisioning role" style="rounded=1;whiteSpace=wrap;html=1;" parent="SodQSrbPSN-j6QDCCie8-29" vertex="1">
                    <mxGeometry width="120" height="60" as="geometry"/>
                </mxCell>
                <mxCell id="SodQSrbPSN-j6QDCCie8-27" value="Create environment&lt;br&gt;provider" style="whiteSpace=wrap;html=1;rounded=1;" parent="SodQSrbPSN-j6QDCCie8-29" vertex="1">
                    <mxGeometry x="410" width="120" height="60" as="geometry"/>
                </mxCell>
                <mxCell id="SodQSrbPSN-j6QDCCie8-32" value="" style="edgeStyle=orthogonalEdgeStyle;rounded=0;orthogonalLoop=1;jettySize=auto;html=1;entryX=0;entryY=0.5;entryDx=0;entryDy=0;" parent="1" source="SodQSrbPSN-j6QDCCie8-30" target="SodQSrbPSN-j6QDCCie8-18" edge="1">
                    <mxGeometry relative="1" as="geometry">
                        <mxPoint x="167" y="130" as="targetPoint"/>
                    </mxGeometry>
                </mxCell>
                <mxCell id="SodQSrbPSN-j6QDCCie8-30" value="Platform engineer" style="image;sketch=0;aspect=fixed;html=1;points=[];align=center;fontSize=12;image=img/lib/mscae/Person.svg;" parent="1" vertex="1">
                    <mxGeometry x="50" y="105" width="37" height="50" as="geometry"/>
                </mxCell>
                <mxCell id="SodQSrbPSN-j6QDCCie8-40" value="" style="edgeStyle=orthogonalEdgeStyle;rounded=0;orthogonalLoop=1;jettySize=auto;html=1;entryX=0;entryY=0.5;entryDx=0;entryDy=0;" parent="1" source="SodQSrbPSN-j6QDCCie8-41" target="SodQSrbPSN-j6QDCCie8-38" edge="1">
                    <mxGeometry relative="1" as="geometry">
                        <mxPoint x="167" y="320" as="targetPoint"/>
                    </mxGeometry>
                </mxCell>
                <mxCell id="SodQSrbPSN-j6QDCCie8-41" value="Application developer" style="image;sketch=0;aspect=fixed;html=1;points=[];align=center;fontSize=12;image=img/lib/mscae/Person.svg;" parent="1" vertex="1">
                    <mxGeometry x="50" y="295" width="37" height="50" as="geometry"/>
                </mxCell>
                <mxCell id="SodQSrbPSN-j6QDCCie8-42" value="" style="edgeStyle=orthogonalEdgeStyle;rounded=0;orthogonalLoop=1;jettySize=auto;html=1;" parent="1" source="SodQSrbPSN-j6QDCCie8-38" target="SodQSrbPSN-j6QDCCie8-6" edge="1">
                    <mxGeometry relative="1" as="geometry"/>
                </mxCell>
                <mxCell id="SodQSrbPSN-j6QDCCie8-43" value="Target" style="edgeLabel;html=1;align=center;verticalAlign=middle;resizable=0;points=[];" parent="SodQSrbPSN-j6QDCCie8-42" vertex="1" connectable="0">
                    <mxGeometry x="0.0533" y="2" relative="1" as="geometry">
                        <mxPoint as="offset"/>
                    </mxGeometry>
                </mxCell>
                <mxCell id="SodQSrbPSN-j6QDCCie8-38" value="Create application" style="rounded=1;whiteSpace=wrap;html=1;" parent="1" vertex="1">
                    <mxGeometry x="430" y="290" width="120" height="60" as="geometry"/>
                </mxCell>
                <mxCell id="iMTsjVbhqvX_V11yuaeA-2" value="&lt;font style=&quot;font-size: 13px;&quot;&gt;&lt;b&gt;&lt;u&gt;Platform Engineers&lt;br&gt;&lt;/u&gt;&lt;/b&gt;&lt;br&gt;&lt;/font&gt;&lt;ul style=&quot;line-height: 150%; font-size: 13px;&quot;&gt;&lt;li&gt;&lt;font style=&quot;font-size: 13px;&quot;&gt;Create Environments and environment providers&lt;/font&gt;&lt;/li&gt;&lt;li&gt;&lt;font style=&quot;font-size: 13px;&quot;&gt;Deploy an environment provider&lt;/font&gt;&lt;/li&gt;&lt;li&gt;&lt;font style=&quot;font-size: 13px;&quot;&gt;Deploy an environment&lt;/font&gt;&lt;/li&gt;&lt;/ul&gt;&lt;div style=&quot;font-size: 13px;&quot;&gt;&lt;br&gt;&lt;/div&gt;" style="text;whiteSpace=wrap;html=1;" parent="1" vertex="1">
                    <mxGeometry x="20" y="400" width="360" height="130" as="geometry"/>
                </mxCell>
                <mxCell id="iMTsjVbhqvX_V11yuaeA-3" value="&lt;font style=&quot;font-size: 13px;&quot;&gt;&lt;b&gt;&lt;u&gt;Platform Engineers&lt;br&gt;&lt;/u&gt;&lt;/b&gt;&lt;br&gt;&lt;/font&gt;&lt;ul style=&quot;line-height: 150%; font-size: 13px;&quot;&gt;&lt;li&gt;&lt;font style=&quot;font-size: 13px;&quot;&gt;Create Environments and environment providers&lt;/font&gt;&lt;/li&gt;&lt;li&gt;&lt;font style=&quot;font-size: 13px;&quot;&gt;Deploying an environment provider&lt;/font&gt;&lt;/li&gt;&lt;li&gt;&lt;font style=&quot;font-size: 13px;&quot;&gt;Deploying an environment&lt;/font&gt;&lt;/li&gt;&lt;/ul&gt;&lt;div style=&quot;font-size: 13px;&quot;&gt;&lt;br&gt;&lt;/div&gt;" style="text;whiteSpace=wrap;html=1;" parent="1" vertex="1">
                    <mxGeometry x="461" y="400" width="360" height="130" as="geometry"/>
                </mxCell>
            </root>
        </mxGraphModel>
    </diagram>
</mxfile>